<svg xmlns="http://www.w3.org/2000/svg" xmlns:xlink="http://www.w3.org/1999/xlink" version="1.0" id="Layer_1" x="0px" y="0px" viewBox="0 0 804 602" style="enable-background:new 0 0 804 602;" xml:space="preserve">
<style type="text/css">
	.st0{fill:#d2691e;}
	.st1{fill:#d2691e;}
</style>
<path class="st0" d="M402,557c-25.9,0-52-4.3-77.4-12.9c-8-2.7-12.3-11.3-9.6-19.3c2.7-8,11.3-12.3,19.3-9.6  c22.3,7.5,45,11.3,67.7,11.3c124.4,0,225.6-102.1,225.6-227.6c0-123.3-101.6-223.6-226.6-223.6c-123.8,0-224.6,100.3-224.6,223.6  c0,43.3,12,85.2,34.7,121.1l5.9,8.9c2.4,3.7,3.2,8.2,2,12.5l-16.2,59l60.9-15.6c8.1-2.1,16.4,2.8,18.5,11c2.1,8.1-2.8,16.4-11,18.5  l-86.3,22.1c-5.3,1.3-10.8-0.2-14.6-4.1c-3.8-3.9-5.3-9.5-3.8-14.7l21.2-77.6l-2.2-3.3c-0.1-0.1-0.1-0.2-0.2-0.3  C159.6,395.7,146,348.1,146,299c0-68.1,26.5-131.9,74.7-179.8C268.8,71.3,332.8,45,401,45c68.4,0,132.7,26.2,181.2,73.7  C631.1,166.6,658,230.6,658,299c0,68.5-26.8,133.2-75.5,182.2C533.8,530.1,469.7,557,402,557z"/>
<path class="st1" d="M545.2,398.1l4.6-15.3c1.5-4.4-0.3-10.1-4.5-12.7L478,332c-4.3-2.6-9.9-1.9-13.6,2.2l-30.7,33.2  c-2.4,2-5.8,2.9-9.1,1.5c-11.3-5.1-35.9-16.4-54.3-34.8l0,0c-0.3-0.2-0.5-0.5-0.8-0.8c-0.2-0.3-0.5-0.5-0.8-0.8l0,0  c-19.1-19.1-29.7-43-34.8-54.3c-1.4-3.2-0.6-6.7,1.5-9.1l33.2-30.7c4.2-3.7,4.8-9.4,2.2-13.6l-38.1-67.3c-2.6-4.3-8.3-6-12.7-4.5  l-15.3,4.6c-16.4,4.7-31.1,16-39.8,32.4c-10.5,21-14.1,45.9-2.6,76.3c19.3,51.2,45.8,86.3,66.8,107.2c20.9,20.9,56,47.5,107.2,66.8  c30.4,11.5,55.3,8,76.3-2.6C529.2,429.2,540.5,414.5,545.2,398.1z"/>
<path class="st0" d="M473,462.8C473,462.8,473,462.8,473,462.8c-13.5,0-27.6-2.7-41.9-8.1c-56.1-21.2-92.2-49.9-112.6-70.2  c-20.4-20.4-49.1-56.4-70.2-112.6c-11.7-31-10.7-60.8,3.2-88.5c0.1-0.1,0.1-0.2,0.2-0.3c10.2-19.3,28.1-33.8,48.9-39.9l15-4.6  c2.5-0.8,5.1-1.2,7.8-1.2c9.2,0,17.8,4.7,22.4,12.4c0.1,0.1,0.2,0.3,0.2,0.4l38,67.1c6.3,10.6,4.1,24.2-5.1,32.5l-29,26.9  c5.2,11.3,14.5,30.1,29.4,45c0.1,0.1,0.2,0.2,0.4,0.3l1.3,1.3c0.1,0.1,0.2,0.2,0.3,0.4c14.5,14.4,34.1,24.3,45,29.4l26.9-29  c5-5.5,12.1-8.7,19.4-8.7c4.6,0,9.2,1.2,13.1,3.6l67.1,38c0.1,0.1,0.3,0.2,0.4,0.2c10,6.1,14.8,19.1,11.1,30.3l-4.5,15  c-6,20.8-20.6,38.7-39.9,48.9c-0.1,0.1-0.2,0.1-0.3,0.2C504.7,459,489,462.8,473,462.8z M278.7,197.2c-10,20-10.6,40.9-1.9,63.9  c20.3,53.8,48.4,86.9,63.3,101.8c14.9,14.9,48,43,101.8,63.3c10.8,4.1,21.3,6.2,31.1,6.2h0c11.3,0,22-2.6,32.8-8  c12-6.4,21-17.5,24.8-30.5c0-0.1,0-0.1,0.1-0.2l3.7-12.2l-60.9-34.5l-28.6,30.9c-0.4,0.5-0.9,0.9-1.3,1.3c-4.4,3.7-9.9,5.8-15.6,5.8  c-3.2,0-6.3-0.6-9.3-1.9c-0.1,0-0.2-0.1-0.2-0.1c-10.4-4.7-38.1-17.1-58.8-37.9c-0.1-0.1-0.2-0.2-0.2-0.2l-0.5-0.5  c0,0-0.1-0.1-0.1-0.1l-0.5-0.5c-0.1-0.1-0.2-0.2-0.2-0.2c-20.8-20.8-32.2-46.1-37.6-58.2l-0.3-0.6c0-0.1-0.1-0.2-0.1-0.2  c-3.6-8.3-2.1-17.9,3.8-24.9c0.4-0.5,0.8-0.9,1.3-1.3l30.9-28.6l-34.5-60.9l-12.2,3.7c-0.1,0-0.1,0-0.2,0.1  C296.2,176.1,285.1,185.2,278.7,197.2z"/>
</svg>